<?xml version="1.0" standalone="no"?>
<!DOCTYPE svg PUBLIC "-//W3C//DTD SVG 20010904//EN"
 "http://www.w3.org/TR/2001/REC-SVG-20010904/DTD/svg10.dtd">
<svg version="1.0" xmlns="http://www.w3.org/2000/svg"
 width="512.000000pt" height="512.000000pt" viewBox="0 0 512.000000 512.000000"
 preserveAspectRatio="xMidYMid meet">
<metadata>
Created by potrace 1.11, written by Peter Selinger 2001-2013
</metadata>
<g transform="translate(0.000000,512.000000) scale(0.100000,-0.100000)"
fill="#000000" stroke="none">
<path d="M1832 4968 c-7 -7 -12 -9 -12 -6 0 4 -23 -8 -52 -27 -28 -19 -55 -32
-60 -29 -4 3 -8 1 -8 -5 0 -13 -55 -42 -64 -34 -3 4 -6 1 -6 -5 0 -5 -39 -32
-87 -59 -47 -26 -98 -55 -112 -63 -112 -66 -147 -84 -153 -82 -5 1 -8 -2 -8
-7 0 -10 -39 -27 -53 -23 -5 1 -6 -1 -3 -6 2 -4 -16 -19 -42 -32 -26 -13 -63
-34 -82 -46 -71 -44 -175 -102 -184 -102 -5 0 -12 -4 -15 -9 -3 -6 -85 -55
-181 -110 -96 -55 -192 -110 -212 -122 -37 -22 -37 -22 -36 -89 0 -37 -1 -71
-2 -77 -1 -5 -1 -12 0 -15 6 -16 4 -70 -3 -70 -5 0 -5 -4 -2 -10 6 -9 9 -103
5 -125 -1 -5 -1 -14 0 -20 5 -25 4 -85 -1 -85 -4 0 -3 -16 1 -35 5 -21 4 -38
-2 -41 -5 -3 -5 -11 -1 -17 8 -10 9 -110 3 -127 -1 -3 -1 -9 0 -15 5 -25 4
-85 -1 -85 -4 0 -3 -16 1 -35 4 -20 4 -38 -1 -41 -5 -3 -6 -11 -2 -17 9 -15
10 -147 2 -147 -4 0 -3 -16 1 -35 4 -20 4 -38 -1 -41 -5 -3 -6 -10 -3 -16 10
-16 11 -68 1 -68 -5 0 -5 -5 -2 -10 9 -15 10 -214 1 -228 -4 -7 -3 -12 2 -12
10 0 9 -36 0 -46 -4 -3 -3 -17 2 -30 6 -14 6 -26 -1 -29 -5 -4 -6 -12 -2 -18
12 -19 12 -37 1 -37 -7 0 -7 -4 0 -13 7 -8 7 -18 2 -27 -5 -8 -6 -18 -3 -23 8
-13 8 -231 -1 -245 -4 -7 -4 -12 1 -12 4 0 8 -16 8 -35 0 -19 -3 -35 -7 -35
-4 0 -3 -13 2 -29 4 -15 4 -34 0 -42 -5 -7 -6 -17 -3 -23 9 -14 9 -66 0 -66
-5 0 -5 -4 -2 -10 6 -9 9 -103 5 -125 -1 -5 -1 -14 0 -20 5 -25 4 -85 -1 -85
-4 0 -3 -16 1 -35 5 -21 4 -38 -2 -41 -5 -3 -5 -11 -1 -17 8 -10 9 -110 3
-127 -1 -3 -1 -9 0 -15 6 -28 4 -85 -3 -85 -5 0 -6 -4 -3 -8 11 -18 14 -62 5
-68 -5 -3 -6 -11 -2 -17 10 -16 10 -147 0 -147 -5 0 -6 -4 -3 -8 11 -18 14
-62 5 -68 -5 -3 -6 -10 -2 -17 3 -6 6 -41 6 -77 -1 -57 2 -67 21 -76 76 -39
154 -89 150 -96 -3 -4 2 -5 12 -1 13 5 15 2 10 -18 -6 -20 -5 -21 4 -7 10 17
12 17 38 1 35 -22 41 -32 37 -55 -2 -10 0 -16 5 -13 5 3 7 14 5 24 -3 19 -2
19 31 -1 19 -11 31 -24 28 -29 -3 -5 2 -6 10 -3 9 3 16 1 16 -6 0 -6 5 -8 12
-4 7 5 9 2 6 -8 -4 -8 0 -15 8 -15 7 0 11 4 8 8 -2 4 32 -13 76 -38 44 -25 80
-49 80 -54 0 -5 3 -8 8 -7 4 0 15 -2 25 -7 13 -5 15 -11 7 -20 -8 -10 -8 -15
1 -21 7 -4 9 -3 6 3 -23 37 68 5 101 -36 8 -10 11 -11 6 -2 -5 10 3 7 22 -6
16 -11 39 -23 50 -27 12 -4 33 -17 46 -29 13 -12 27 -23 31 -23 23 -5 67 -28
67 -35 0 -5 7 -9 16 -9 11 0 14 -6 9 -22 -7 -23 -7 -23 8 -3 13 17 16 18 22 5
3 -9 14 -16 25 -17 24 -2 52 -28 42 -38 -4 -4 -2 -5 3 -3 14 4 95 -33 95 -44
0 -5 4 -7 10 -3 5 3 18 -3 30 -15 11 -11 20 -17 20 -14 0 12 59 -31 70 -50 7
-13 9 -15 6 -4 -7 24 -1 23 25 -5 12 -12 18 -15 14 -7 -6 11 -3 10 12 -3 11
-9 25 -17 32 -17 7 0 10 -4 6 -9 -3 -5 0 -13 6 -17 8 -4 9 -3 5 4 -8 14 30 36
46 26 6 -4 8 -3 4 4 -3 6 -2 13 4 17 5 3 10 2 10 -4 0 -6 7 -8 15 -5 8 4 15
10 15 16 0 5 -6 6 -12 2 -7 -4 -11 -5 -8 -1 3 3 8 5 11 4 4 -1 17 7 29 18 l23
20 -13 -25 c-12 -23 -12 -24 3 -11 10 7 17 19 17 26 0 12 15 22 34 23 5 0 12
6 16 12 5 9 9 9 14 1 7 -10 -6 -16 -27 -12 -5 1 -5 -4 -1 -10 4 -7 3 -9 -4 -5
-6 3 -13 3 -16 -2 -11 -18 24 -7 51 15 15 14 22 22 16 18 -7 -3 -13 -2 -13 2
0 12 56 44 64 36 3 -3 6 -1 6 5 0 7 8 12 17 12 13 0 14 -3 5 -12 -7 -7 -12
-17 -12 -22 0 -6 7 0 16 12 8 12 12 27 9 32 -6 10 7 14 34 11 7 -2 10 2 7 8
-4 6 5 13 19 17 14 3 25 10 25 16 0 5 4 7 9 4 5 -3 12 1 15 10 4 9 9 14 12 11
4 -3 13 1 21 9 11 11 19 12 28 4 10 -8 15 -8 21 1 4 8 3 9 -4 5 -7 -4 -12 -4
-12 1 1 4 16 18 35 30 25 16 35 18 38 8 3 -7 15 -15 26 -18 12 -3 19 -1 15 4
-3 5 -12 9 -20 9 -8 0 -14 7 -14 15 0 14 12 19 33 16 4 0 7 3 7 7 0 5 17 18
38 30 35 19 40 20 60 6 20 -14 21 -13 15 2 -5 13 -3 15 7 9 8 -5 11 -4 6 3 -4
6 -14 8 -24 5 -9 -3 -14 -2 -9 2 11 13 51 13 59 1 4 -6 6 -1 5 11 -1 17 -4 19
-14 11 -7 -6 -13 -7 -13 -2 0 5 23 21 50 36 28 16 49 25 49 20 -3 -19 2 -32
12 -32 8 0 8 4 0 14 -10 11 -7 19 10 35 14 13 26 17 33 12 6 -5 16 -11 21 -13
6 -1 9 -7 7 -11 -1 -5 2 -6 8 -2 8 5 8 11 -1 21 -6 7 -15 11 -20 8 -5 -3 -9
-1 -9 4 0 5 17 14 37 20 28 9 40 8 52 -1 10 -8 13 -8 8 -1 -4 7 0 14 8 18 17
6 20 26 4 26 -5 0 -7 -5 -4 -10 3 -6 1 -10 -4 -10 -18 0 -12 19 8 30 24 12 42
13 22 1 -9 -6 -10 -11 -2 -15 6 -4 11 -2 11 4 0 17 62 70 82 70 18 0 19 -3 22
-39 0 -11 4 -22 7 -26 8 -7 4 44 -5 66 -7 15 -1 20 37 27 4 1 16 11 27 22 12
12 25 18 29 15 5 -2 12 2 15 11 3 8 10 13 14 10 5 -3 19 4 30 15 12 11 22 16
22 11 0 -5 -9 -17 -20 -27 -11 -10 -20 -22 -20 -27 0 -5 11 3 24 19 21 25 26
26 42 13 18 -14 18 -14 1 6 -15 18 -15 23 -3 33 11 9 15 8 19 -3 4 -11 1 -13
-11 -10 -14 5 -14 4 -2 -4 8 -6 18 -8 24 -5 5 4 7 0 4 -9 -4 -8 -1 -15 7 -15
8 0 11 7 7 16 -5 14 -4 14 14 1 17 -14 18 -14 6 2 -11 14 -9 17 15 26 22 8 24
11 8 11 -17 1 -18 3 -5 12 10 7 11 9 2 7 -8 -2 -14 -8 -14 -13 -2 -18 -32 -35
-40 -22 -11 17 -10 27 3 27 5 0 7 -5 3 -12 -4 -7 -3 -8 4 -4 7 4 12 14 12 22
0 8 3 13 8 13 21 -4 32 2 26 14 -4 6 -3 9 1 4 5 -4 17 0 27 10 20 18 20 18 23
-15 3 -25 -5 -28 -23 -10 -9 9 -12 9 -12 0 0 -7 5 -12 11 -12 5 0 8 -4 5 -8
-2 -4 3 -8 13 -8 13 0 17 9 17 40 0 26 5 41 14 44 13 3 13 2 0 -7 -9 -6 -10
-11 -3 -11 6 0 14 -8 16 -17 2 -10 3 -8 2 4 -3 26 13 50 35 55 8 2 21 10 28
18 12 13 13 13 8 -2 -3 -10 0 -20 6 -24 7 -4 8 -3 4 5 -8 13 48 71 69 71 6 0
22 9 35 20 12 11 26 18 30 15 4 -2 16 4 26 13 10 10 36 27 56 39 33 19 39 20
52 8 23 -23 31 -17 10 7 -10 12 -13 18 -6 14 6 -4 12 -2 12 3 0 6 7 11 15 11
8 0 15 4 15 8 0 17 47 31 59 19 9 -9 11 -8 6 4 -4 10 -1 20 6 25 7 4 10 3 7
-2 -4 -5 5 -10 18 -10 21 -2 23 0 9 10 -13 9 -8 15 32 36 27 13 52 29 56 35 5
5 6 0 2 -12 -3 -12 -1 -24 4 -28 7 -4 8 1 4 11 -4 12 -3 15 5 10 8 -4 10 -2 6
7 -3 9 7 23 25 37 23 16 32 18 35 8 13 -40 14 -42 15 -23 1 13 8 21 21 22 13
1 18 -2 14 -9 -4 -7 -2 -8 4 -4 16 10 15 14 -9 27 -12 6 -19 7 -16 2 4 -5 0
-10 -8 -10 -21 0 -18 10 7 26 18 11 23 11 32 0 6 -8 18 -15 26 -17 8 -2 12 0
8 4 -4 4 -3 13 4 21 6 7 8 16 4 20 -3 3 -6 1 -6 -6 0 -7 -5 -9 -12 -5 -7 4 -8
3 -4 -4 4 -7 2 -12 -3 -12 -21 0 -10 19 23 39 36 22 66 27 66 11 0 -5 5 -10
12 -10 6 0 3 10 -8 21 l-19 22 25 -13 c22 -12 24 -12 12 2 -10 13 -10 17 2 21
17 7 30 -8 21 -22 -3 -5 0 -13 7 -17 7 -4 10 -4 6 1 -4 4 -3 16 3 26 8 15 14
17 29 9 10 -5 22 -10 27 -10 4 1 -3 7 -17 15 -18 9 -29 10 -37 3 -9 -7 -13 -7
-13 0 0 12 29 24 41 16 5 -3 9 2 9 11 0 9 5 13 11 10 6 -4 8 -13 6 -19 -3 -7
1 -13 8 -13 7 0 11 5 9 12 -3 6 5 11 16 12 12 1 18 -2 14 -9 -4 -7 -2 -8 5 -4
19 12 2 27 -25 22 -17 -3 -24 -1 -21 7 2 7 12 11 22 9 11 -2 15 1 9 9 -5 9 -2
10 10 6 10 -4 20 -7 22 -7 3 0 2 -5 -1 -10 -4 -6 -1 -9 7 -8 7 2 12 -3 10 -10
-1 -8 2 -11 8 -7 11 7 -9 45 -23 45 -13 0 14 24 56 47 20 12 37 18 37 13 0 -6
-5 -10 -12 -10 -6 0 -9 -3 -6 -6 4 -3 16 0 28 6 16 9 25 8 38 -2 15 -11 15
-11 6 2 -9 11 -7 22 7 45 10 17 22 30 26 29 5 0 17 1 27 4 18 5 18 6 3 11 -15
6 -15 9 -2 34 8 15 10 25 5 22 -6 -4 -10 -2 -10 3 0 6 7 12 15 15 16 7 12 50
-5 55 -5 2 -10 8 -10 13 0 6 6 7 13 3 8 -6 8 -3 -1 9 -8 9 -11 21 -7 27 3 5 1
10 -6 10 -9 0 -9 4 1 15 6 8 9 18 6 24 -3 5 0 12 6 14 10 4 10 6 1 6 -7 1 -13
10 -13 22 0 13 4 18 13 13 8 -6 8 -3 -2 9 -7 9 -11 23 -8 31 3 7 0 19 -6 25
-6 6 -8 14 -4 18 4 3 14 -2 22 -13 12 -14 11 -9 -2 19 -17 38 -17 39 2 54 16
12 16 14 3 10 -10 -3 -20 -2 -23 3 -4 6 0 10 8 10 8 0 18 7 21 16 5 14 4 15
-8 5 -12 -10 -14 -4 -11 39 2 27 -1 52 -6 55 -10 7 0 35 13 35 6 0 5 -6 -2
-15 -7 -9 -8 -15 -2 -15 17 0 23 30 7 36 -8 4 -15 10 -15 16 0 5 6 6 13 2 8
-6 8 -3 -1 9 -8 9 -11 21 -7 27 3 5 1 10 -6 10 -9 0 -9 4 1 15 6 8 9 18 6 24
-3 5 0 12 6 14 10 4 10 6 1 6 -17 1 -17 28 0 34 9 4 9 6 0 6 -7 1 -13 6 -13
12 0 5 6 7 13 3 8 -6 8 -3 -1 9 -8 9 -11 21 -7 27 3 5 1 10 -6 10 -9 0 -9 4 1
15 6 8 9 18 6 24 -3 5 0 12 6 14 10 4 10 6 1 6 -7 1 -13 10 -13 22 0 13 4 18
13 13 8 -6 8 -3 -2 9 -7 9 -11 23 -8 31 3 7 0 19 -6 25 -6 6 -8 14 -4 18 4 3
14 -2 22 -13 12 -14 11 -9 -2 19 -17 38 -17 39 2 54 16 12 16 14 3 10 -10 -3
-20 -2 -23 3 -4 6 0 10 8 10 8 0 18 7 21 16 5 14 4 15 -8 5 -12 -10 -14 -4
-11 39 2 27 -1 52 -6 55 -10 7 0 35 13 35 6 0 5 -6 -2 -15 -7 -9 -8 -15 -2
-15 17 0 23 30 7 36 -8 4 -15 10 -15 16 0 5 6 6 13 2 8 -6 8 -3 -1 9 -8 9 -11
21 -7 27 3 5 1 10 -6 10 -9 0 -9 4 1 15 6 8 9 18 6 24 -3 5 0 12 6 14 10 4 10
6 1 6 -7 1 -13 8 -13 17 0 9 5 12 12 8 6 -4 4 3 -5 16 -13 19 -14 27 -4 38 9
12 9 16 -1 20 -10 3 -10 7 -1 18 6 8 8 14 3 14 -5 0 -2 5 6 10 10 6 11 10 3
10 -8 0 -13 13 -13 33 0 30 -5 37 -50 61 -28 15 -48 32 -45 37 3 5 -2 6 -11 2
-13 -5 -15 -3 -9 7 5 9 4 11 -3 6 -13 -8 -72 23 -72 37 0 4 -4 6 -8 3 -5 -3
-25 6 -45 19 -20 14 -40 25 -45 25 -4 0 -18 9 -30 20 -12 12 -22 18 -22 15 0
-3 -17 6 -37 20 -21 14 -43 25 -49 25 -6 0 -19 10 -28 23 -9 12 -14 16 -10 9
5 -11 2 -12 -15 -3 -11 7 -21 17 -21 23 0 6 -3 8 -6 5 -10 -10 -61 23 -74 47
-7 15 -9 16 -5 3 5 -17 4 -17 -25 0 -17 9 -30 22 -30 27 0 5 -3 7 -6 3 -3 -3
-40 14 -81 39 -41 24 -79 44 -84 44 -5 0 -9 4 -9 9 0 5 -8 11 -17 14 -45 15
-158 87 -155 99 2 7 0 10 -4 6 -4 -4 -14 -2 -22 5 -13 10 -14 9 -8 -1 7 -11 4
-11 -13 0 -12 7 -21 16 -21 20 0 5 -7 8 -16 8 -9 0 -12 5 -8 12 4 7 3 8 -4 4
-14 -8 -73 24 -66 36 3 4 -1 5 -9 2 -8 -3 -21 1 -28 8 -8 7 -27 19 -42 26 -21
9 -27 17 -22 30 5 13 4 14 -6 5 -9 -9 -21 -7 -51 8 -21 11 -36 24 -33 29 3 6
-1 7 -9 4 -9 -3 -16 -1 -16 6 0 6 -4 9 -9 6 -5 -3 -12 1 -15 10 -4 9 -9 14
-12 11 -11 -10 -84 35 -84 52 0 12 -2 13 -8 3 -6 -9 -14 -7 -30 8 -12 12 -22
18 -22 15 0 -3 -13 2 -29 11 -17 10 -27 22 -24 27 3 6 1 7 -5 3 -15 -9 -73 24
-65 37 3 6 1 7 -5 4 -12 -8 -123 53 -116 65 3 4 -2 5 -10 2 -9 -3 -16 -1 -16
5 0 6 -3 10 -7 10 -21 -3 -26 2 -13 12 12 9 12 10 -3 5 -22 -7 -79 23 -70 37
3 6 1 7 -5 3 -11 -6 -104 40 -110 56 -2 4 -10 8 -18 8 -8 0 -14 5 -14 12 0 6
-3 8 -6 5 -6 -6 -91 38 -104 53 -3 3 -17 11 -32 17 -16 7 -28 17 -28 23 0 6
-4 9 -9 5 -5 -3 -16 1 -24 9 -8 8 -17 12 -21 9 -3 -4 -6 -1 -6 5 0 7 -3 11 -7
10 -5 -1 -18 4 -31 11 -20 11 -21 15 -10 29 12 15 11 16 -4 4 -14 -11 -23 -10
-57 8 -23 11 -41 25 -41 31 0 6 -4 8 -9 4 -5 -3 -17 3 -27 12 -10 10 -19 17
-21 15 -8 -7 -82 42 -76 51 3 6 1 7 -5 4 -11 -7 -72 23 -72 36 0 4 -8 7 -18 7
-10 0 -28 9 -40 20 -12 12 -22 18 -22 14 0 -3 -6 -2 -13 5 -10 8 -17 7 -25 -1z
m2784 -3071 c1 -9 -2 -17 -8 -17 -6 0 -8 6 -5 14 3 8 2 17 -4 20 -5 2 -4 3 2
2 7 -1 13 -10 15 -19z m-82 -151 c-6 -15 -34 -31 -34 -19 0 5 30 32 37 33 1 0
0 -6 -3 -14z m-1700 -984 c2 -4 -4 -8 -14 -8 -10 0 -16 4 -14 8 3 4 9 8 14 8
5 0 11 -4 14 -8z"/>
<path d="M4611 3367 c2 -1 13 -9 24 -17 19 -14 19 -14 6 3 -7 9 -18 17 -24 17
-6 0 -8 -1 -6 -3z"/>
<path d="M4621 3284 c0 -11 3 -14 6 -6 3 7 2 16 -1 19 -3 4 -6 -2 -5 -13z"/>
<path d="M4612 3245 c-8 -10 -9 -15 -2 -15 6 0 8 -6 4 -12 -4 -7 -3 -10 1 -5
8 7 19 48 12 47 -1 -1 -8 -7 -15 -15z"/>
<path d="M4630 3179 c0 -5 5 -7 10 -4 6 3 10 8 10 11 0 2 -4 4 -10 4 -5 0 -10
-5 -10 -11z"/>
<path d="M4619 3133 c0 -5 -2 -16 -4 -25 -2 -10 0 -20 4 -22 3 -2 7 9 7 25 1
16 0 29 -2 29 -2 0 -4 -3 -5 -7z"/>
<path d="M4630 3060 c0 -5 5 -10 11 -10 5 0 7 5 4 10 -3 6 -8 10 -11 10 -2 0
-4 -4 -4 -10z"/>
<path d="M4630 2990 c-9 -6 -10 -10 -3 -10 6 0 15 5 18 10 8 12 4 12 -15 0z"/>
<path d="M4615 2940 c-3 -5 -1 -10 4 -10 6 0 11 5 11 10 0 6 -2 10 -4 10 -3 0
-8 -4 -11 -10z"/>
<path d="M4630 2896 c0 -2 8 -10 18 -17 15 -13 16 -12 3 4 -13 16 -21 21 -21
13z"/>
<path d="M4615 2851 c-6 -11 13 -26 22 -17 4 3 1 6 -6 6 -7 0 -9 5 -6 10 3 6
4 10 1 10 -3 0 -7 -4 -11 -9z"/>
<path d="M4610 2760 c0 -5 5 -10 10 -10 6 0 10 5 10 10 0 6 -4 10 -10 10 -5 0
-10 -4 -10 -10z"/>
<path d="M4635 2739 c-4 -6 -5 -12 -2 -15 2 -3 7 2 10 11 7 17 1 20 -8 4z"/>
<path d="M4630 2699 c0 -5 5 -7 10 -4 6 3 10 8 10 11 0 2 -4 4 -10 4 -5 0 -10
-5 -10 -11z"/>
<path d="M4619 2653 c0 -5 -2 -16 -4 -25 -2 -10 0 -20 4 -22 3 -2 7 9 7 25 1
16 0 29 -2 29 -2 0 -4 -3 -5 -7z"/>
<path d="M4630 2580 c0 -5 5 -10 11 -10 5 0 7 5 4 10 -3 6 -8 10 -11 10 -2 0
-4 -4 -4 -10z"/>
<path d="M4630 2539 c0 -5 5 -7 10 -4 6 3 10 8 10 11 0 2 -4 4 -10 4 -5 0 -10
-5 -10 -11z"/>
<path d="M4619 2493 c0 -5 -2 -16 -4 -25 -2 -10 0 -20 4 -22 3 -2 7 9 7 25 1
16 0 29 -2 29 -2 0 -4 -3 -5 -7z"/>
<path d="M4630 2420 c0 -5 5 -10 11 -10 5 0 7 5 4 10 -3 6 -8 10 -11 10 -2 0
-4 -4 -4 -10z"/>
<path d="M4630 2350 c-9 -6 -10 -10 -3 -10 6 0 15 5 18 10 8 12 4 12 -15 0z"/>
<path d="M4615 2300 c-3 -5 -1 -10 4 -10 6 0 11 5 11 10 0 6 -2 10 -4 10 -3 0
-8 -4 -11 -10z"/>
<path d="M4630 2256 c0 -2 8 -10 18 -17 15 -13 16 -12 3 4 -13 16 -21 21 -21
13z"/>
<path d="M4615 2211 c-6 -11 13 -26 22 -17 4 3 1 6 -6 6 -7 0 -9 5 -6 10 3 6
4 10 1 10 -3 0 -7 -4 -11 -9z"/>
<path d="M4610 2120 c0 -5 5 -10 10 -10 6 0 10 5 10 10 0 6 -4 10 -10 10 -5 0
-10 -4 -10 -10z"/>
<path d="M4635 2099 c-4 -6 -5 -12 -2 -15 2 -3 7 2 10 11 7 17 1 20 -8 4z"/>
<path d="M4630 2059 c0 -5 5 -7 10 -4 6 3 10 8 10 11 0 2 -4 4 -10 4 -5 0 -10
-5 -10 -11z"/>
<path d="M4619 2013 c0 -5 -2 -16 -4 -25 -2 -10 0 -20 4 -22 3 -2 7 9 7 25 1
16 0 29 -2 29 -2 0 -4 -3 -5 -7z"/>
<path d="M4630 1940 c0 -5 5 -10 11 -10 5 0 7 5 4 10 -3 6 -8 10 -11 10 -2 0
-4 -4 -4 -10z"/>
<path d="M4655 1900 c-3 -5 -1 -10 4 -10 6 0 11 5 11 10 0 6 -2 10 -4 10 -3 0
-8 -4 -11 -10z"/>
<path d="M4633 1835 c0 -8 4 -12 9 -9 4 3 8 9 8 15 0 5 -4 9 -8 9 -5 0 -9 -7
-9 -15z"/>
<path d="M4630 1806 c0 -2 7 -7 16 -10 8 -3 12 -2 9 4 -6 10 -25 14 -25 6z"/>
<path d="M4574 1735 c-4 -8 -11 -12 -17 -8 -6 3 -7 1 -3 -5 10 -16 14 -15 26
8 6 11 8 20 5 20 -3 0 -8 -7 -11 -15z"/>
<path d="M4436 1684 c-9 -8 -16 -21 -15 -27 0 -9 2 -9 5 0 3 7 11 11 17 9 7
-1 8 -1 4 2 -4 2 -3 10 4 18 16 19 4 18 -15 -2z"/>
<path d="M4485 1660 c-3 -6 1 -7 9 -4 18 7 21 14 7 14 -6 0 -13 -4 -16 -10z"/>
<path d="M4289 1557 c6 -8 7 -18 3 -22 -4 -5 -1 -5 6 -1 10 6 10 11 1 22 -6 8
-14 14 -16 14 -3 0 0 -6 6 -13z"/>
<path d="M4159 1528 c-11 -8 -10 -9 4 -4 9 3 17 1 17 -4 0 -6 5 -10 10 -10 6
0 10 4 10 9 0 14 -26 20 -41 9z"/>
<path d="M4156 1493 c-6 -14 -5 -15 5 -6 7 7 10 15 7 18 -3 3 -9 -2 -12 -12z"/>
<path d="M4013 1441 c-20 -17 -21 -20 -6 -26 10 -3 14 -3 10 1 -4 4 0 16 10
26 21 23 14 23 -14 -1z"/>
<path d="M3923 1383 c-13 -9 -23 -20 -23 -25 0 -5 7 -3 15 5 8 9 20 17 27 20
7 2 11 7 8 10 -3 2 -15 -2 -27 -10z"/>
<path d="M4013 1385 c0 -8 4 -12 9 -9 5 3 6 10 3 15 -9 13 -12 11 -12 -6z"/>
<path d="M3886 1321 c-14 -15 -15 -21 -4 -27 7 -4 10 -3 5 1 -4 5 0 17 10 27
9 10 14 18 11 18 -3 0 -13 -9 -22 -19z"/>
<path d="M3805 1321 c-6 -11 13 -26 22 -17 4 3 1 6 -6 6 -7 0 -9 5 -6 10 3 6
4 10 1 10 -3 0 -7 -4 -11 -9z"/>
<path d="M3780 1300 c0 -5 5 -10 11 -10 5 0 7 5 4 10 -3 6 -8 10 -11 10 -2 0
-4 -4 -4 -10z"/>
<path d="M3750 1280 c0 -5 5 -10 10 -10 6 0 10 5 10 10 0 6 -4 10 -10 10 -5 0
-10 -4 -10 -10z"/>
<path d="M3707 1253 c5 -12 3 -14 -8 -8 -8 5 -11 4 -6 0 4 -5 14 -10 22 -11
12 -2 12 2 5 17 -13 23 -22 25 -13 2z"/>
<path d="M3810 1260 c0 -5 5 -10 11 -10 5 0 7 5 4 10 -3 6 -8 10 -11 10 -2 0
-4 -4 -4 -10z"/>
<path d="M3641 1226 c-9 -10 -8 -15 2 -19 8 -3 13 3 13 14 0 23 0 23 -15 5z"/>
<path d="M3680 1220 c8 -5 20 -10 25 -10 6 0 3 5 -5 10 -8 5 -19 10 -25 10 -5
0 -3 -5 5 -10z"/>
<path d="M3611 1194 c0 -11 3 -14 6 -6 3 7 2 16 -1 19 -3 4 -6 -2 -5 -13z"/>
<path d="M3571 1181 c-8 -13 -8 -22 -1 -26 6 -4 7 -11 4 -17 -4 -7 -2 -8 5 -4
8 6 9 12 2 20 -7 9 -7 16 1 24 6 6 9 14 6 18 -4 3 -11 -3 -17 -15z"/>
<path d="M3650 1179 c0 -5 5 -7 10 -4 6 3 10 8 10 11 0 2 -4 4 -10 4 -5 0 -10
-5 -10 -11z"/>
<path d="M3499 1143 c-12 -14 -12 -16 0 -8 11 6 13 4 9 -7 -4 -8 -1 -15 6 -15
7 0 13 6 13 14 0 7 -5 13 -11 13 -6 0 -4 5 4 10 8 5 10 10 4 10 -6 0 -18 -8
-25 -17z"/>
<path d="M3473 1095 c0 -8 4 -12 9 -9 4 3 8 9 8 15 0 5 -4 9 -8 9 -5 0 -9 -7
-9 -15z"/>
<path d="M3405 1092 c-5 -4 -12 -16 -13 -27 -4 -23 0 -20 17 13 12 24 12 26
-4 14z"/>
<path d="M3433 1083 c4 -3 -1 -12 -11 -20 -15 -13 -15 -13 6 -3 19 9 23 30 5
30 -4 0 -3 -3 0 -7z"/>
<path d="M596 902 c-3 -5 1 -9 9 -9 8 0 12 4 9 9 -3 4 -7 8 -9 8 -2 0 -6 -4
-9 -8z"/>
<path d="M3072 898 c-7 -7 -12 -17 -12 -22 0 -6 4 -5 9 3 8 13 12 13 28 0 17
-13 17 -13 3 6 -8 11 -15 21 -15 22 -1 2 -7 -3 -13 -9z"/>
<path d="M3110 901 c0 -6 4 -13 10 -16 6 -3 7 1 4 9 -7 18 -14 21 -14 7z"/>
<path d="M3150 898 c0 -4 4 -8 9 -8 6 0 12 4 15 8 3 5 -1 9 -9 9 -8 0 -15 -4
-15 -9z"/>
<path d="M3020 861 c-12 -24 -2 -31 28 -20 27 10 29 19 2 12 -12 -3 -20 0 -20
6 0 7 5 9 12 5 7 -4 8 -3 4 4 -10 16 -14 15 -26 -7z"/>
<path d="M670 856 c0 -3 9 -10 20 -16 11 -6 20 -8 20 -6 0 3 -9 10 -20 16 -11
6 -20 8 -20 6z"/>
<path d="M2940 820 c-8 -15 -8 -25 0 -38 10 -15 10 -15 6 3 -6 23 2 39 24 48
12 4 12 6 -2 6 -10 1 -22 -8 -28 -19z"/>
<path d="M3035 811 c-3 -5 -2 -12 3 -15 5 -3 9 1 9 9 0 17 -3 19 -12 6z"/>
<path d="M670 801 c0 -6 4 -13 10 -16 6 -3 7 1 4 9 -7 18 -14 21 -14 7z"/>
<path d="M2960 799 c0 -5 5 -7 10 -4 6 3 10 8 10 11 0 2 -4 4 -10 4 -5 0 -10
-5 -10 -11z"/>
<path d="M2915 780 c3 -5 2 -10 -3 -10 -6 0 -13 -8 -16 -17 -6 -15 -5 -15 13
1 18 16 20 36 5 36 -3 0 -2 -4 1 -10z"/>
<path d="M2810 722 c0 -5 7 -9 15 -9 8 0 12 4 9 9 -3 4 -9 8 -15 8 -5 0 -9 -4
-9 -8z"/>
<path d="M2720 696 c-9 -11 -9 -19 0 -33 10 -16 10 -15 5 5 -6 22 -5 23 14 12
12 -6 18 -16 15 -22 -5 -7 -2 -8 6 -3 10 6 8 12 -8 25 -12 10 -18 20 -15 24 4
3 4 6 1 6 -3 0 -11 -7 -18 -14z"/>
<path d="M970 682 c0 -4 10 -9 22 -9 18 -2 20 0 8 7 -18 12 -30 13 -30 2z"/>
<path d="M2650 657 c-14 -11 -14 -14 2 -29 10 -10 18 -14 18 -10 0 4 -5 13
-12 20 -16 16 4 16 22 0 12 -11 12 -10 0 7 -8 11 -14 21 -15 22 0 1 -7 -4 -15
-10z"/>
<path d="M2630 620 c0 -5 5 -10 11 -10 5 0 7 5 4 10 -3 6 -8 10 -11 10 -2 0
-4 -4 -4 -10z"/>
<path d="M1086 598 c3 -5 10 -6 15 -3 13 9 11 12 -6 12 -8 0 -12 -4 -9 -9z"/>
<path d="M2543 572 c10 -10 14 -22 10 -27 -5 -4 -2 -5 5 -1 11 6 10 12 -4 27
-9 10 -19 19 -22 19 -3 0 2 -8 11 -18z"/>
<path d="M2610 579 c0 -5 5 -7 10 -4 6 3 10 8 10 11 0 2 -4 4 -10 4 -5 0 -10
-5 -10 -11z"/>
<path d="M2500 556 c7 -7 14 -6 21 1 9 9 7 12 -9 10 -14 -1 -18 -5 -12 -11z"/>
<path d="M1176 542 c-3 -5 1 -9 9 -9 8 0 12 4 9 9 -3 4 -7 8 -9 8 -2 0 -6 -4
-9 -8z"/>
<path d="M2470 540 c0 -5 5 -10 10 -10 6 0 10 5 10 10 0 6 -4 10 -10 10 -5 0
-10 -4 -10 -10z"/>
<path d="M1233 525 c0 -7 5 -13 11 -12 6 1 10 -5 8 -13 -2 -8 0 -11 4 -7 4 4
9 15 10 23 1 9 0 13 -3 10 -4 -3 -11 -1 -18 4 -8 7 -12 5 -12 -5z"/>
<path d="M2434 528 c-4 -7 -4 -10 1 -6 4 4 15 2 24 -5 14 -11 14 -10 2 6 -16
20 -18 21 -27 5z"/>
<path d="M2379 492 c-13 -16 -13 -16 5 -2 18 14 19 13 13 -2 -3 -10 -2 -18 3
-18 12 0 13 27 1 34 -5 3 -15 -2 -22 -12z"/>
<path d="M1356 462 c-3 -5 1 -9 9 -9 8 0 12 4 9 9 -3 4 -7 8 -9 8 -2 0 -6 -4
-9 -8z"/>
<path d="M2310 455 c-7 -9 -11 -17 -9 -20 3 -2 10 5 17 15 14 24 10 26 -8 5z"/>
<path d="M2280 436 c0 -8 -6 -16 -12 -19 -7 -3 -4 -5 8 -4 15 1 20 6 16 19 -5
22 -12 24 -12 4z"/>
<path d="M2325 439 c-3 -4 2 -6 10 -5 21 3 28 13 10 13 -9 0 -18 -4 -20 -8z"/>
<path d="M2223 390 c-8 -12 -9 -21 -3 -25 6 -4 9 -1 8 7 -2 8 5 12 17 11 11
-1 14 0 7 3 -6 3 -10 10 -6 15 3 5 1 9 -3 9 -5 0 -14 -9 -20 -20z"/>
<path d="M2187 370 c3 -11 9 -22 13 -25 5 -3 6 4 3 15 -3 11 -9 22 -13 25 -5
3 -6 -4 -3 -15z"/>
<path d="M2103 343 c-7 -3 -13 -9 -13 -15 0 -6 7 -4 17 3 15 12 16 12 10 -3
-3 -10 -2 -18 3 -18 12 0 13 27 3 33 -5 2 -14 2 -20 0z"/>
<path d="M1575 329 c-4 -6 -5 -12 -2 -15 2 -3 7 2 10 11 7 17 1 20 -8 4z"/>
<path d="M1633 295 c0 -8 4 -12 9 -9 5 3 6 10 3 15 -9 13 -12 11 -12 -6z"/>
<path d="M2079 293 c-13 -16 -12 -17 4 -4 16 13 21 21 13 21 -2 0 -10 -8 -17
-17z"/>
<path d="M2153 295 c0 -8 4 -12 9 -9 5 3 6 10 3 15 -9 13 -12 11 -12 -6z"/>
<path d="M1693 255 c0 -8 4 -12 9 -9 5 3 6 10 3 15 -9 13 -12 11 -12 -6z"/>
<path d="M2010 249 c0 -5 -4 -8 -9 -4 -5 3 -12 1 -15 -4 -4 -5 2 -8 11 -7 15
3 33 26 19 26 -3 0 -6 -5 -6 -11z"/>
<path d="M1940 200 c-8 -5 -10 -10 -5 -10 6 0 17 5 25 10 8 5 11 10 5 10 -5 0
-17 -5 -25 -10z"/>
</g>
</svg>
